# xmcd
#
# Track frame offsets:
#	150
#	27770
#	45557
#	69270
#	84675
#	101210
#	123429
#	150730
#	168145
#	187130
#
# Disc length: 2647 seconds
#
# Revision: 1
# Processed by: cddbd v1.4PL0 Copyright (c) Steve Scherf et al.
# Submitted via: audiograbber 1.80
#
DISCID=7d0a550a
DTITLE=Pfeuffer and Solomon - Where Do We Go From Here
DYEAR=1900
DGENRE=
TTITLE0=Like A Window Pane
TTITLE1=Wave Of Love
TTITLE2=Try Forever
TTITLE3=Friend
TTITLE4=Falling Down
TTITLE5=Try To Make Sense Of Love
TTITLE6=Next To You
TTITLE7=Over Again
TTITLE8=I'm Going Back
TTITLE9=Where Do We Go From Here
EXTD=
EXTT0=
EXTT1=
EXTT2=
EXTT3=
EXTT4=
EXTT5=
EXTT6=
EXTT7=
EXTT8=
EXTT9=
PLAYORDER=
